<?xml version="1.0" encoding="iso-8859-1"?>
<!-- Generator: Adobe Illustrator 19.0.0, SVG Export Plug-In . SVG Version: 6.00 Build 0)  -->
<svg version="1.1" id="Capa_1" xmlns="http://www.w3.org/2000/svg" xmlns:xlink="http://www.w3.org/1999/xlink" x="0px" y="0px"
	 viewBox="-49 141 512 512" style="enable-background:new -49 141 512 512;" xml:space="preserve">
<linearGradient id="SVGID_1_" gradientUnits="userSpaceOnUse" x1="14.6608" y1="563.028" x2="363.6659" y2="214.023">
	<stop  offset="0" style="stop-color:#DE1C3E"/>
	<stop  offset="1" style="stop-color:#004D92"/>
</linearGradient>
<path style="fill:url(#SVGID_1_);" d="M172.879,298.339c0-18.152-11.786-32.884-26.307-32.884
	c-14.522,0-26.307,14.732-26.307,32.884c0,18.165,11.786,32.884,26.307,32.884C161.094,331.223,172.879,316.504,172.879,298.339z
	 M190.348,243.462c5.696,2.999,12.588,1.144,15.429-4.183c2.854-5.34,0.552-12.141-5.143-15.179
	c-1.894-1.013-47.051-24.518-103.164-0.447c-5.696,2.447-8.011,8.997-5.169,14.64c1.157,2.302,2.986,4.091,5.143,5.235
	c3.131,1.671,6.945,1.986,10.326,0.552C153.096,224.626,188.73,242.62,190.348,243.462z M343.272,280.477
	c-1.828-1.144-45.288-27.662-102.914-7.458c-5.84,2.052-8.602,8.445-6.143,14.259c1,2.381,2.71,4.288,4.762,5.577
	c3.025,1.881,6.814,2.46,10.286,1.25c5.902-2.07,11.607-3.548,17.074-4.552c-4.177,5.822-6.722,13.511-6.722,21.941
	c0,18.165,11.786,32.884,26.307,32.884c14.535,0,26.307-14.719,26.307-32.884c0-8.325-2.481-15.925-6.564-21.72
	c15.58,3.11,25.212,8.831,26.031,9.329c5.459,3.381,12.483,1.999,15.666-3.131C350.559,290.829,348.73,283.897,343.272,280.477z
	 M169.275,398.465c-6.143,0.894-10.049,6.643-8.747,12.812c0.526,2.539,1.842,4.722,3.63,6.393c2.591,2.42,6.195,3.696,9.839,3.157
	c48.8-7.195,78.632,19.323,80,20.533c4.722,4.367,11.865,4.341,15.969-0.079c4.117-4.446,3.657-11.588-1.079-15.982
	C267.296,423.838,229.677,389.547,169.275,398.465z M428.557,370.684c0-59.178-23.045-114.814-64.89-156.661
	C321.82,172.175,266.181,149.128,207,149.128c-59.176,0-114.813,23.047-156.662,64.895c-41.848,41.849-64.895,97.485-64.895,156.662
	c0,54.533,19.583,106.047,55.398,146.545c-4.694,14.56-4.761,30.75-0.262,50.182c5.938,25.67,21.416,47.607,43.582,61.77
	c15.975,10.207,34.025,15.464,52.373,15.464c7.292,0,14.633-0.831,21.906-2.511c2.818-0.623,40.991-8.863,41.379-8.947
	c0.367-0.079,0.73-0.177,1.087-0.293c2.354-0.765,23.089-8.004,26.293-26.392c1.066-5.981,0.346-10.991-1.396-15.06
	c52.089-4.349,100.482-26.711,137.863-64.093C405.512,485.506,428.557,429.867,428.557,370.684z M209.807,503.364
	c-4.647,1.125-8.165,5.051-8.562,9.816c-0.395,4.742,2.164,9.156,6.523,11.05c0.6,0.309,6.832,3.643,6.649,8.256
	c-0.282,6.974-5.311,9.844-6.591,10.463c-4.604,1.725-7.61,6.129-7.255,11.04c0.355,4.902,3.804,8.832,8.593,9.886
	c3.808,1.346,3.43,4.718,3.289,5.994c-0.004,0.034-0.011,0.065-0.015,0.099c-0.743,6.206-5.107,7.948-6.651,8.371
	c-5.183,0.834-8.826,5.149-9.066,10.406c-0.014,0.301-0.012,0.599,0.001,0.895c0.007,0.171,0.025,0.339,0.04,0.509
	c0.01,0.11,0.018,0.221,0.031,0.33c0.027,0.226,0.065,0.448,0.106,0.67c0.008,0.04,0.015,0.079,0.023,0.119
	c0.05,0.252,0.109,0.501,0.177,0.747c0,0,0,0,0,0.001c1.067,3.859,4.267,6.972,8.316,7.968c0.051,0.013-0.076,0.107-0.047,0.149
	c0.069,0.112,0.266,0.861-0.029,2.52c-0.667,3.823-7.163,7.603-10.885,8.987c-5.374,1.161-38.533,8.319-40.869,8.838
	c-0.033,0.007-0.066,0.014-0.099,0.023c-19.732,4.571-40.107,1.012-57.374-10.022c-17.243-11.017-29.285-28.088-33.907-48.069
	c-2.335-10.083-3.238-18.634-2.629-26.342c0.081-1.023,0.191-2.029,0.326-3.023c0.022-0.164,0.051-0.325,0.075-0.488
	c0.116-0.802,0.248-1.597,0.4-2.383c0.045-0.235,0.094-0.468,0.143-0.701c0.154-0.744,0.325-1.481,0.511-2.212
	c0.051-0.2,0.1-0.402,0.154-0.601c0.24-0.894,0.5-1.782,0.79-2.66c0.005-0.014,0.008-0.028,0.013-0.043
	c0.621-1.877,1.358-3.72,2.206-5.543c0.057-0.122,0.117-0.244,0.174-0.366c0.374-0.789,0.769-1.575,1.187-2.358
	c0.065-0.122,0.129-0.245,0.196-0.367c0.473-0.873,0.968-1.743,1.496-2.612c5.981-9.851,15.452-19.514,28.709-31.19
	c17.971-15.834,23.137-40.703,14.172-68.235c-1.339-4.11-0.785-6.414-0.307-6.884c0.252-0.248,0.996-0.518,2.21-0.518
	c1.057,0,2.471,0.205,4.227,0.807c6.127,2.102,12.306,9.25,16.126,18.656c2.093,5.154,6.246,20.244,4.954,31.496
	c-1.253,10.819-4.696,16.391-9.488,21.437c-8.368,8.83-4.939,16.612-3.689,18.787c1.306,2.272,6.581,9.451,19.614,6.384
	c0.031-0.006,0.061-0.014,0.092-0.022c1.488-0.363,14.205-3.304,18.812-4.365c13.821-3.218,40.433-9.401,64.837-15.072
	c25.681-5.966,48.918-11.366,52.231-12.143c1.964-0.458,4.861-0.463,6.575,0.607c0.417,0.26,1.685,1.051,2.433,4.291
	c1.115,4.792-0.836,7.812-5.775,8.97C276.204,487.286,212.515,502.709,209.807,503.364z M234.719,568.105
	c-0.09-6.387-2.103-11.455-4.948-15.358c3.662-4.852,6.498-11.274,6.825-19.373c0.194-4.897-0.88-9.24-2.68-13.006
	c20.135-4.87,49.725-12.021,54.105-13.037c14.437-3.385,26.749-16.705,22.356-35.595c-2.324-10.077-7.977-15.414-12.31-18.116
	c-9.305-5.804-19.433-4.305-23.376-3.388c-3.33,0.782-26.545,6.176-52.202,12.137c-24.407,5.671-51.024,11.855-64.823,15.068
	c-0.045,0.01-1.306,0.301-3.161,0.73c2.493-5.536,4.055-11.651,4.881-18.784c1.949-16.969-3.987-36.353-6.438-42.39
	c-6.352-15.643-17.101-27.052-29.493-31.303c-11.262-3.86-22.181-2.03-29.211,4.895c-7.148,7.04-9.052,17.82-5.222,29.573
	c6.181,18.985,3.432,34.862-7.739,44.705c-12.075,10.635-22.031,20.389-29.439,30.836C24.215,461.48,7.64,417.987,7.64,370.684
	c0-109.927,89.432-199.36,199.36-199.36c109.927,0,199.36,89.432,199.36,199.36C406.36,471.205,331.572,554.572,234.719,568.105z"/>
<title>factura</title>
</svg>
