<svg xmlns="http://www.w3.org/2000/svg" xmlns:xlink="http://www.w3.org/1999/xlink" viewBox="0 0 500 500" xmlns:v="https://vecta.io/nano"><style><![CDATA[.N{fill:#f2c438}.O{fill:#50bfa0}.P{fill:#008ae5}.Q{fill:#f25749}.R{fill:#ff0073}]]></style><path d="M184.7 160.48c-1.68.47-3.53 1.61-4.62 2.84-1.63 1.84-3.19 5.73-3.37 8.44-.11 1.62-.1 1.68.59 2.36.77.77 1.73.91 2.51.36.27-.19 1-1.41 1.64-2.74 1.69-3.5 2.61-4.84 3.69-5.39 1.84-.94 3.84-.36 4.38 1.26 1.16 3.49-2.46 10.22-8.29 15.46-4.09 3.67-9.09 7.37-9.27 6.86a1031.04 1031.04 0 0 1-1.69-5.12c-1.7-5.18-3.1-8.4-4.06-9.36-1.6-1.6-3.97-.72-5.13 1.9-1.21 2.75-1.23 7.89-.04 14.74l.7 4.37c-.01.15-.56.59-1.21.96-2.78 1.56-6.83 4.48-8.46 6.09-3.04 3.01-4.89 6.46-5.58 10.44-.44 2.51-.44 3.9-.01 6.38.96 5.53 3.77 9.61 9 13.07 7.02 4.63 14.17 7.81 17.64 7.83 5.05.03 7.94-4.28 7.6-11.32-.17-3.47-.66-6.91-1.8-12.51l-1.04-5.19c-.1-.57.07-.69 2.84-2.15 6.19-3.25 11.78-6.99 12.85-8.59 1.54-2.3.59-4.39-1.99-4.38-1.22 0-2.34.47-10.06 4.24-3.26 1.59-5.65 2.63-5.77 2.5-.21-.24-1.96-6.51-1.84-6.6.05-.04 1.22-.75 2.62-1.58 11.91-7.12 19.09-16.1 19.78-24.76.37-4.57-1.92-8.68-5.61-10.08-1.71-.66-4.33-.8-6-.33h0zm-21.58 42.19c0 .05.25 1.45.57 3.14l.57 3.32c0 .15-.55.57-1.2.92-4.88 2.63-6.71 5.1-5.03 6.78.96.96 2.23 1.07 5.22.47 1.36-.27 2.51-.43 2.58-.36.24.24 3.71 14.71 3.71 15.48 0 .24-.22.27-.98.15-6.41-1-12.93-5.03-15.1-9.31-1-1.98-1.43-3.94-1.44-6.56-.02-4.68 1.84-8.28 5.68-11.01 2.14-1.52 5.42-3.35 5.42-3.02h0zm62.42-35.81c-3.87 1.08-6.97 6.43-8.04 13.91-.4 2.8-.15 10.41.45 13.93 1.45 8.42 3.89 14.9 7.58 20.13l.94 1.33-1.19 1.73c-1.67 2.43-4.12 4.98-5.67 5.92-1.64.99-4.53 1.97-5.82 1.96-1.57-.01-4.12-.81-5.16-1.64-.18-.15.05-.67.79-1.76 5.84-8.64 5.33-21.83-.98-25.12-2.15-1.12-5.34-.3-7.24 1.86-2.76 3.15-4.45 9.82-3.88 15.33.42 4.09 1.66 8.03 3.2 10.19.26.37.47.76.47.9 0 .36-3.13 2.22-5.03 3.01-2.12.87-2.32 1.04-2.32 1.96 0 1.21.66 1.62 2.6 1.62 1.95 0 3.69-.7 6.1-2.46.81-.59 1.6-1.01 1.73-.92a195.54 195.54 0 0 0 1.86 1.23c2.55 1.68 4.55 2.3 7.76 2.44 4.15.17 6.83-.55 10.03-2.7 2.14-1.44 5.21-4.65 6.73-7.06l1.31-2.08 1.44.53c3.09 1.13 5.82.94 9.07-.63 1.51-.73 2.33-1.33 3.83-2.81 2.64-2.61 4.14-4.99 6.37-10.08l.3-.68 1 1.81c1.74 3.17 4.28 5.21 6.87 5.52.98.12 1.36.04 2.43-.48 2.1-1.02 3.22-2.81 6.01-9.52 2.97-7.15 5.37-11.16 8.2-13.74 1.71-1.55 3.04-2.32 4.31-2.5 4.15-.57 7.12 3.97 6.77 10.35-.07 1.27-.18 2.45-.26 2.65-.1.28-.59.35-2.36.36-5.73.02-10.22 3.23-10.55 7.53-.2 2.6.89 4.72 3.05 5.94 1.05.59 1.3.63 3.2.56 1.88-.07 2.21-.15 3.71-.94 1.58-.84 3.67-2.74 5.13-4.69l.57-.77.96.83c.9.77 3.05 3.43 3.04 3.76 0 .08-.96.44-2.12.79-7.35 2.22-12.57 7.05-14.08 13.02-.55 2.19-.5 5.48.13 7.3.97 2.84 2.52 4.59 5.27 5.95 1.68.83 1.79.85 4.26.84 2.19-.01 2.73-.09 3.94-.6 7.29-3.08 11.64-10.73 11.3-19.89l-.08-2.19 4.83-.62c6.82-.88 9.55-1.59 13.25-3.45 7.56-3.8 11.59-9.72 12.03-17.66.36-6.54-2.77-12.53-7.86-15.05-1.74-.86-1.86-.89-4.22-.89-2.27 0-2.52.05-3.94.74-1.86.91-4 3.11-4.92 5.03-1.17 2.48-1.02 4.9.5 7.94.8 1.6 2.08 2.06 2.97 1.07.36-.4.46-.96.55-3.28.12-3.02.47-4.08 1.79-5.51.79-.86 2.69-1.75 3.72-1.75 3.08 0 5.73 2.95 6.74 7.5 1.12 5.05-.62 9.81-5.3 14.48-4.02 4.01-9.29 5.57-18.91 5.57h-3.13l-1.12-1.99c-1.28-2.27-3.84-5.12-5.96-6.64l-1.42-1.02.32-1.44c1.1-5.01.37-10.58-1.84-14.04-2.12-3.31-6.37-5.21-10.1-4.52-2.19.4-3.82 1.07-5.73 2.34-4.19 2.79-7.06 7.27-10.9 16.98-1.12 2.82-2.14 5.04-2.53 5.51l-.67.79-.49-1.09c-1.09-2.42-1.24-3.89-1.26-12.22-.01-5.36-.11-8.09-.3-8.72-1.21-4-4.64-4.38-6.71-.74-1.12 1.98-2.07 6.43-2.07 9.77 0 1.01-.15 1.49-.79 2.54-.43.71-2 3.45-3.5 6.12-3.22 5.75-4.16 7.18-5.76 8.79-1.54 1.55-2.98 2.22-4.34 2.01-.55-.08-1.21-.33-1.49-.55l-.5-.4.6-1.81c.85-2.59 1.66-6.14 2.25-9.99.43-2.77.52-4.33.53-9.4.02-7.63-.53-11.7-2.29-16.96-2.36-7.16-5.92-10.49-9.96-9.37h0zm3.81 5.71c1.77 1.97 3.47 6.84 4.02 11.52.34 2.95.15 10.13-.36 12.88-.65 3.54-2.45 10.31-2.87 10.76-.39.42-2.53-5.68-3.68-10.52-1.29-5.4-1.64-7.84-1.77-12.31-.17-5.9.54-10.03 2.13-12.44.78-1.16 1.41-1.14 2.53.11h0zm-22.23 30.37c1.21 2.17 1.61 7.17.86 10.8-.37 1.77-1.65 5.24-2.27 6.12-.28.39-.38.26-1.05-1.36-1.49-3.56-2-8.29-1.27-11.72.4-1.88.67-2.62 1.42-3.91.77-1.31 1.55-1.29 2.31.07h0zm78.68 4c.19.31-2.02 3.3-2.96 4.01-1.18.9-2.09 1.11-3.04.72-.66-.27-.77-.42-.77-1.15 0-1.08.52-1.84 1.79-2.58 1.67-.97 4.63-1.57 4.98-1h0zm11.68 13.81c.23 1.13.17 4.44-.09 5.77-.46 2.3-1.16 4.07-2.26 5.75-1.97 3-4.33 4.56-6.91 4.59-1.68.02-2.67-.53-3.43-1.9s-.78-3.87-.05-5.73c1.1-2.78 3.79-5.53 7.05-7.18 1.14-.58 4.9-1.97 5.42-2.01.07 0 .19.32.27.71h0zm-43.21-50.48c-1.57.82-2.38 1.99-2.5 3.63-.08 1.07 0 1.58.41 2.4 1.45 2.98 5.86 2.91 7.57-.13.75-1.33.62-3.48-.29-4.66-1.27-1.63-3.44-2.15-5.19-1.24h0zm89.36 56.54c-.53.82-.26 1.36 1.81 3.56 2.89 3.08 3.55 4.53 3.12 6.82-.35 1.86-.99 3.16-2.2 4.46-1.65 1.77-2.55 2.16-4.89 2.13s-3.56-.39-6.91-2.06c-6.12-3.05-8.86-3.65-12.09-2.66-3.03.93-6.05 3.82-7.92 7.58-1.49 3-1.46 5.72.08 7.01 1.42 1.19 3.28.99 4.79-.52.47-.47 1.36-1.84 1.96-3.02 1.39-2.71 2.72-4.7 3.46-5.18.89-.59 2.19-.31 5.66 1.24 5.09 2.26 7.31 2.85 10.69 2.83 3.39-.02 6.33-1.24 8.42-3.5 4.29-4.63 4.15-11.82-.33-16.31-2.76-2.77-4.82-3.64-5.65-2.38h0zm-90.92 5.48c-2.48.81-4.5 2.89-6.38 6.56-5.21 10.19-7.14 28.62-4.13 39.59.17.62-1.58 1.77-4.38 2.89-2.19.88-4.91 1.71-5.07 1.54-.06-.06.1-.59.35-1.18.67-1.56 2.48-8.77 2.79-11.11.52-3.91-.24-7.36-2.04-9.23-1.93-1.99-4.14-2.05-6.94-.18-3.27 2.19-7.55 8.6-9.87 14.81-.43 1.16-.85 2.12-.93 2.12-.07 0-.2-1.03-.28-2.27-.32-4.85-2.02-7.59-4.7-7.6-1.25 0-2.08.43-3.09 1.61-1.47 1.72-2.28 4.79-2.67 10.06l-.21 2.82-2.54 5.13c-1.98 4-2.79 5.4-3.68 6.36-.93 1.01-1.19 1.17-1.38.89-.91-1.37-1.02-7.26-.28-14.36 1.06-10.19 1.18-16.05.39-19.33-.67-2.8-2.18-4.94-4.14-5.9-1.27-.62-3.56-.61-4.96.03-2.09.95-5.59 4.78-8.25 9.02-2.81 4.49-6.09 12.68-7.71 19.28l-.94 3.66c-.04.06-.55-.35-1.16-.93-1.9-1.79-3.99-2.05-5.86-.74-1.08.76-3.19 3.56-4.45 5.92l-.86 1.62-.49-3.78c-.78-6.06-1.47-8.73-2.93-11.37-1.86-3.37-5.4-3.89-7.33-1.09-1.73 2.52-2.93 7.48-3.96 16.4-.6 5.23-1.08 7.89-1.58 8.85l-.31.59-.59-.79c-.72-.96-1.39-2.62-1.97-4.94-.69-2.75-.91-4.46-1.53-11.81-.31-3.74-.73-7.32-.93-7.98-.94-3.15-3.91-4.16-5.82-1.99-.83.94-.89 1.38-1.03 7.13-.12 4.82-.67 8.66-2.08 14.47-1.37 5.64-3.4 11.35-4.05 11.35-.36 0-1.07-1.79-1.57-3.94-.59-2.53-.87-6.3-1.04-13.86-.16-7.02-.34-8.68-1.18-10.41-1.44-2.97-4.67-3.35-6.44-.74-.71 1.05-1.15 3.28-1.45 7.32-.35 4.78-1.17 7.63-4.31 14.95-4.45 10.38-6.8 14.37-9.83 16.67-1.18.9-2.72 1.29-3.85.99-3.96-1.07-7.74-10.27-9.22-22.47-1.87-15.39.28-32.09 4.52-35.21.59-.43.66-.43 1.64-.06 2.22.85 4.33 3.37 7.16 8.53 2.77 5.05 3.43 5.71 5.59 5.55 1.07-.08 1.35-.21 2.01-.92 1.06-1.14 1.31-2.32 1.17-5.33-.22-4.81-2.01-9.14-5.64-13.69-6.44-8.05-15.93-8.76-22.48-1.68-6.99 7.55-10.06 21.56-8.2 37.41 1.55 13.23 7.23 25.94 13.96 31.3 3.26 2.6 5.92 3.58 9.31 3.44 1.97-.08 2.4-.18 3.94-.91 5.23-2.5 8.56-8.27 13.59-23.55.51-1.55 1.01-2.82 1.1-2.82.1 0 .25.44.34.96.43 2.55 2.23 6.73 4.16 9.64 2.56 3.87 6.23 5.57 8.95 4.16 2.88-1.5 5.03-6.23 6.29-13.91l.59-3.59c.13-.75.2-.66 1.67 2.32 1.74 3.52 2.73 4.96 4.52 6.61 1.86 1.7 3.45 1.84 5.05.43 1.72-1.51 2.2-3.25 3.08-11.19.55-4.9 1.75-10.47 2.61-12.13l.3-.57.37.94c.2.52.8 2.73 1.33 4.92 2.65 11 3.05 12.16 4.42 12.91.96.52 2.15.35 2.87-.42.28-.3.86-1.46 1.28-2.58 1.6-4.24 3.03-6.85 4.2-7.61.78-.51 1.04-.17 2.03 2.58 1.88 5.25 3.34 6.89 5.73 6.45.99-.18 2.07-1.07 2.62-2.17.23-.46.8-2.54 1.27-4.61 1.22-5.38 2.93-11.69 3.97-14.6 1.07-3 3.6-8.59 4.9-10.8 1.7-2.91 3.39-4.79 3.87-4.31.11.11.31 1.13.46 2.28.21 1.63.18 3.27-.1 7.49-.41 6.25-.47 14.6-.12 17.82.63 5.84 1.82 8.73 4.31 10.48 1.42.99 3.41 1.1 5.2.28 1.68-.77 3.62-2.73 5.11-5.16l1.17-1.9.26 1.33c.59 3.02 1.95 8.18 3.02 11.41 1.47 4.46 4.82 11.23 5.95 12 .98.67 2.1.66 2.91-.03.58-.5.65-.71.64-1.89-.01-.74-.18-2.4-.39-3.74-1.87-11.81-1.17-22.35 2.14-32.18 2.01-5.97 4.42-10.77 6.87-13.71 1.09-1.31 2.38-2.34 2.94-2.34.13 0 .42.48.63 1.05.33.87.37 1.49.25 3.61-.21 3.78-.59 5.01-3.25 10.41-2 4.07-2.53 4.95-3.34 5.6-1.07.85-1.82 2.25-1.83 3.41-.01.9.87 1.88 1.67 1.88.82 0 2.65-.99 4.13-2.24 1.17-.98 1.6-1.19 3.43-1.64 2.7-.66 5.38-1.62 8.53-3.02 2.6-1.16 3.13-1.31 3.13-.85 0 .14.47 1.2 1.05 2.34 2.7 5.36 6.32 8.64 10.78 9.78 2.71.69 4.5.61 8.74-.37.4-.09.65.17 1.44 1.51 2.8 4.72 6.88 6.46 10.8 4.6 2.15-1.02 4.16-3.16 6.06-6.48.85-1.49 1.63-2.74 1.74-2.8s.27.37.35.96c.25 1.71 1.17 4.16 2.05 5.49 1.63 2.45 3.87 3.4 6.45 2.72 3.16-.83 5.54-3.07 9.21-8.66l2.77-4.21c.26-.39.28-.38.17.14-.33 1.71-.51 5.45-.33 6.76.62 4.39 2.83 7.26 5.38 6.97 3.25-.37 4.16-1.94 8.29-14.38 2.43-7.32 4.58-13.31 4.9-13.64.1-.11.26.98.35 2.4.43 7.17 1.84 11.12 4.41 12.37 2.94 1.42 5.64-.96 7.33-6.45 3.23-10.49 4.54-13.33 7.74-16.72.91-.96 2.78-2.34 3.19-2.34.56 0 .07 3.76-1.53 11.63-1.8 8.88-2.51 15.49-1.98 18.65.99 5.95 5.37 6.94 10.22 2.31.89-.85 2.5-2.64 3.57-3.97 1.08-1.33 2.01-2.43 2.08-2.44s.25.86.4 1.91c.68 4.66 2.97 9.16 5.8 11.4 3.06 2.42 7.13 2.46 10.69.09 1.59-1.06 4.88-4.53 5.95-6.28 1.11-1.82 2.43-4.9 3.34-7.76l.73-2.3 1.73-1.09c2.16-1.36 3.99-3.06 6.32-5.84 1.01-1.2 1.9-2.21 1.99-2.25.17-.07 2.18 2.66 3.51 4.76 2.22 3.5 4.92 9.76 5.32 12.33l.15.94-1.33.53c-2.56 1.02-9.33 4.11-10.78 4.92-2.34 1.31-5 3.44-6.23 5-2.17 2.75-3.02 5.09-3.02 8.33 0 4.53 1.94 7.82 5.77 9.78 1.23.63 1.75.75 3.52.84 1.14.05 2.64-.02 3.32-.16 1.51-.31 5.86-2.37 7.8-3.69 2.85-1.94 5.26-4.88 6.98-8.53 1.92-4.08 2.91-7.83 3.36-12.77l.28-3.06 1.27-.84c3.61-2.4 9.15-8.91 11.42-13.41 1.64-3.25 2.2-5.49 2.33-9.27.13-3.59-.19-5.82-1.22-8.55-1-2.65-2.15-3.72-4-3.72-1.25 0-2.21.7-2.81 2.05-.41.92-.49 1.76-.64 6.9-.15 4.98-.26 6.27-.77 8.69-.75 3.56-1.71 6.08-2.97 7.76-1.32 1.77-3.07 3.44-3.31 3.17-.11-.12-.43-.94-.73-1.84-1.31-4.03-5.77-11.39-10.8-17.82-2.06-2.64-1.94-2.08-1.26-5.82.54-2.97.45-6.78-.23-9.42-.31-1.22-.8-2.71-1.08-3.3-.64-1.33-2.5-3.32-3.86-4.12-.9-.53-1.27-.6-2.97-.59-2.21.01-3.26.39-5.29 1.92-2.28 1.71-3.57 3.86-3.95 6.55-.51 3.68 1.25 8 5.85 14.34l1.06 1.46-.47.67c-.26.36-1.28 1.52-2.26 2.55l-1.79 1.88-.26-1.03c-1.05-4.15-3.42-7.39-6.45-8.83-1.32-.63-1.72-.7-3.55-.7-1.86 0-2.23.08-3.66.75-3.37 1.59-5.68 4.03-6.55 6.9l-.47 1.53h-1.55c-2.45 0-2.83.35-6.35 5.82-5.57 8.64-6.04 9.32-7.33 10.71-1.19 1.29-1.27 1.34-1.28.77-.01-1.05.63-4.29 1.83-9.23 2.75-11.32 3.43-15.64 2.99-19.22-.34-2.82-.98-4.42-2.29-5.73-2.01-2.01-4.5-2.06-7.08-.12-3.19 2.39-6.92 7.07-9.47 11.88l-1.07 2.01-.27-2.07c-.15-1.14-.49-2.64-.75-3.33-1.66-4.46-5.77-5.61-8.55-2.38-2.12 2.47-4.28 7.15-6.24 13.6-4.87 15.94-6.34 20.17-6.83 19.68-.53-.53-.24-5.16.64-10.23.96-5.57 1.25-9.14.81-10.21-.39-.96-1.45-1.8-2.48-1.96-.8-.13-.87-.2-1.12-1.27-.73-3.05-3.79-5.43-7.29-5.66-2.13-.14-3.87.24-6.03 1.32-3.69 1.85-6.15 4.49-8.55 9.21-1.56 3.07-7.18 11.74-9.88 15.24-2.38 3.08-3.52 3.7-4.87 2.63-.56-.44-2.23-3.44-2.23-4.01 0-.14.48-.73 1.05-1.29 4.13-4.03 6.99-12.2 7.02-20.03.01-4.44-1.34-7.46-3.87-8.65-2.38-1.12-5.43-.1-7.58 2.53-1.91 2.33-3.61 6.45-4.3 10.43-.67 3.87-.36 10.55.66 14.32.41 1.51.37 1.53-2.62 1.53-2.01 0-2.31-.06-3.71-.74-.87-.43-1.93-1.19-2.49-1.79-1.66-1.8-3.27-5.79-3.76-9.34-.11-.81-.03-.96 1.08-2.08 5.65-5.65 10.75-14.93 12.19-22.21.66-3.34.91-6.93.63-9.36-.64-5.64-3.15-10.31-6.37-11.89-1.46-.74-3.63-.94-5.05-.48h0zm4.44 9.06c.41.54 1.02 1.84 1.35 2.86 1.83 5.73.35 13.88-3.96 21.84-1.2 2.21-3.21 5.09-4.16 5.95-.45.41-.46.39-.61-.57-.19-1.28.23-7.56.8-12 .83-6.43 2.45-13.35 3.97-17.01 1.04-2.49 1.41-2.65 2.61-1.07h0zm137.41 9.92c1.33 1.04 1.8 3.81 1.2 7.05-.21 1.16-.47 2.12-.57 2.12-.34 0-2.3-2.62-3-4.02-.39-.79-.76-1.95-.83-2.66-.12-1.18-.09-1.31.61-2.11.85-.97 1.68-1.09 2.59-.38h0zm-121.52 16.2c.15.33.39 1.29.54 2.16.65 3.81-1.21 10.71-4.09 15.15l-.67 1.03-.13-1.95c-.37-5.55.91-12.62 2.88-16 .67-1.13 1.08-1.24 1.47-.39h0zm104.97 3.21c.93.48 1.95 1.84 2.59 3.46.58 1.46 1.07 3.86.88 4.35-.18.46-2.82 1.24-4.19 1.23-2.23-.01-3.65-.98-4.33-2.96-.84-2.47.47-6.14 2.34-6.52.69-.14 1.99.06 2.71.44h0zm-73.39 5.23c.59.39.63.51.54 1.75-.12 1.67-.9 3.28-3.57 7.35-2.99 4.55-6.82 8.94-8.43 9.68-.95.44-1.15.01-1.11-2.4.09-5.9 4.29-14.6 7.93-16.45 1.22-.63 3.64-.59 4.64.07h0zm64.16 9.4c2.41 2.25 4.61 2.98 8.64 2.88 1.44-.04 2.62-.01 2.62.06 0 .43-1.52 3.72-2.46 5.31-2.08 3.52-4.61 5.68-6.65 5.68-.81 0-1.14-.14-1.88-.81-1.2-1.09-1.81-2.49-2.06-4.7s.21-9.42.59-9.42c.07 0 .61.45 1.2 1h0zm36.75 15.59c0 .91-.6 4.33-.94 5.36-.57 1.71-2.43 5.01-3.87 6.84-3.16 4.02-9.46 5.89-11.06 3.28-.32-.52-.44-1.14-.44-2.23 0-2.78 1.75-5.37 5.22-7.74 2.59-1.76 5.05-3.1 8.22-4.47 2.35-1.01 2.87-1.2 2.87-1.04h0z" fill="#484c7f"/><path d="M299.23 95.97c-1.52.93-3.61 5.42-4.35 9.36-.47 2.52-.35 9.14.22 11.67 1.9 8.44 6.41 14.83 13.4 18.99 4 2.38 7.32 3.38 11.78 3.55 5.05.2 8.11-.65 12.37-3.41 3.89-2.52 8.26-7.52 9.74-11.13 1.07-2.62 1.36-4.18 1.36-7.19-.01-5.55-1.78-10.05-5.35-13.55-3.17-3.12-6.56-4.59-10.95-4.78-3.1-.13-4.99.26-7.56 1.58-4.5 2.3-7.37 5.94-8.44 10.68-1.46 6.49.06 11.37 4.26 13.65 1.36.74 1.57.78 3.63.78 1.97 0 2.29-.06 3.26-.63 1.84-1.08 2.94-2.78 3.41-5.27.41-2.16-.5-4.55-1.75-4.55-.74 0-1.16.72-1.44 2.47-.26 1.6-.85 2.72-1.9 3.61-1.86 1.57-5.02-.37-5.74-3.52-.75-3.26 1.67-7.63 5.19-9.34 2.51-1.23 5.88-.72 8.15 1.21 1.35 1.15 2.67 3.25 3.26 5.18.42 1.38.46 1.97.36 4.83-.07 1.95-.27 3.81-.5 4.63-1.52 5.51-5.5 9.37-10.9 10.58-7.7 1.72-17.39-4.81-21.14-14.25-1.2-3.01-1.63-5.2-1.76-8.85-.09-2.56-.03-3.8.27-5.38.51-2.73 1.55-5.81 2.67-7.89 1-1.86 1.1-2.54.47-3.11-.56-.49-1.13-.47-2.02.08h0z" class="O"/><path d="M386.72 97.92c-3.82 1.79-10.27 7.94-15.18 14.48-3.02 4.02-6.75 10.16-6.75 11.11 0 .77.61.88 1.44.27.93-.68 16.09-12.97 17.95-14.55 6.97-5.91 7.83-6.91 7.65-8.98-.12-1.4-.56-2.05-1.73-2.55-1.05-.46-2.09-.39-3.38.22h0z" class="N"/><path d="M54.46 163.43c-1.03.64-1.41 1.61-1.29 3.25.09 1.17.35 1.92 1.4 4 4.08 8.07 12.73 15.55 18.69 16.17 1.97.21 1.86-.26-.72-2.95s-4.66-5.42-7.3-9.58c-2.58-4.07-5.9-8.96-6.69-9.86-1.25-1.41-2.83-1.81-4.09-1.03h0z" class="O"/><path d="M273.75 115.21c-3.7 4.35-6.37 9.95-7.72 16.2-.7 3.26-.75 9.46-.09 10.8 1.14 2.3 3.97 2.33 4.96.07.3-.68.63-2.86 1.12-7.54 1.01-9.42 1.76-13.44 3.45-18.43.84-2.47.85-2.65.13-2.65-.38 0-.88.42-1.85 1.55h0zm123.42.22c-2.06.81-3.47 5.71-3.81 13.18-.18 4.02.08 6.94.61 7.04s.74-.44 2.99-7.63c3.14-10.03 3.35-11.18 2.3-12.14-.45-.41-1.57-.65-2.09-.45h0z" class="P"/><g class="N"><use xlink:href="#B"/><use xlink:href="#B" y="-275.21"/></g><path d="M366.5 141.85c-2.85.72-2.82 4.86.04 5.81 1.05.35 2.43-.07 3.18-.96 1.22-1.45.53-3.93-1.28-4.65-.94-.38-1.14-.4-1.94-.2h0z" class="O"/><path d="M388.77 152.2c-7.06 1.8-12.57 7.85-14.97 16.44-.6 2.15-.64 2.58-.64 6.67 0 4.79.29 6.72 1.51 10.06 2 5.47 6.89 10.17 12.51 12.01 1.43.47 2.45.63 4.59.71 3.21.12 4.77-.14 6.76-1.12 2.25-1.12 4.48-3.96 3.92-5.01-.35-.65-1.08-.58-2.28.24-1.73 1.17-3.85 1.68-6.43 1.55-2.69-.14-4.38-.7-6.51-2.16-3.65-2.49-6.02-6.75-6.82-12.24-.33-2.3-.16-6.39.35-8.39 1.09-4.26 4.26-8.23 7.96-9.97 3.67-1.73 6.81-1.76 10.25-.1 2.99 1.44 4.53 3.51 5.11 6.83.36 2.08.17 4.2-.48 5.55-.84 1.73-3.2 4.06-4.88 4.82-1.99.9-4.04 1.01-5.44.29-1.72-.89-2.8-3.14-2.43-5.11.19-1.02.84-1.47 2.74-1.91 1.66-.38 2.23-.81 2.23-1.67 0-.85-.61-1.32-2.08-1.59-1.46-.28-2.5-.12-3.94.59-2.16 1.08-3.1 2.94-2.9 5.79.25 3.52 2.18 6.66 4.93 8 1.64.8 4.33.99 6.43.45 3.1-.79 6.75-3.15 8.48-5.48 2.18-2.93 3.3-6.17 3.3-9.51 0-2.4-.41-4.17-1.51-6.49-2.15-4.55-5.34-7.49-9.64-8.88-2.49-.83-7.62-1-10.12-.37h0z" class="Q"/><path d="M293.8 392.69c-7.06 1.8-12.57 7.85-14.97 16.44-.6 2.15-.64 2.58-.64 6.67 0 4.79.29 6.72 1.51 10.06 2 5.47 6.89 10.17 12.51 12.01 1.43.47 2.45.63 4.59.71 3.21.12 4.77-.14 6.76-1.12 2.25-1.12 4.48-3.96 3.92-5.01-.35-.65-1.08-.58-2.28.24-1.73 1.17-3.85 1.68-6.43 1.55-2.69-.14-4.38-.7-6.51-2.16-3.65-2.49-6.02-6.75-6.82-12.24-.33-2.3-.16-6.39.35-8.4 1.09-4.26 4.26-8.23 7.96-9.97 3.67-1.73 6.81-1.76 10.25-.1 2.99 1.44 4.53 3.51 5.1 6.83.36 2.08.17 4.2-.48 5.55-.84 1.73-3.2 4.06-4.88 4.82-1.99.9-4.04 1.01-5.44.29-1.72-.89-2.8-3.14-2.43-5.11.19-1.02.84-1.47 2.74-1.91 1.66-.38 2.23-.81 2.23-1.67 0-.85-.61-1.32-2.08-1.59-1.46-.28-2.5-.12-3.94.59-2.16 1.08-3.1 2.94-2.9 5.79.25 3.52 2.18 6.66 4.93 8 1.64.8 4.33.99 6.43.45 3.1-.79 6.75-3.15 8.48-5.48 2.18-2.93 3.3-6.17 3.3-9.51 0-2.4-.41-4.17-1.51-6.49-2.15-4.55-5.34-7.49-9.64-8.88-2.48-.82-7.62-1-10.11-.36h0z" class="N"/><path d="M304.12 152.47c-.83.65-1.19 1.83-.85 2.86.37 1.13 1.22 1.73 2.47 1.73.85 0 1.16-.13 1.8-.78.63-.63.78-.96.78-1.75s-.15-1.12-.78-1.75c-.64-.64-.95-.78-1.8-.78-.68.01-1.23.16-1.62.47h0z" class="Q"/><path d="M443.3 152.97c-2.57 1.31-8.79 8.46-12.34 14.16-2.48 4-5.35 10.23-4.99 10.82.32.52.87 0 3.72-3.52 3.58-4.43 5.59-6.62 12.4-13.51l5.12-5.18v-1.03c0-1.93-1.88-2.77-3.91-1.74h0z" class="N"/><path d="M332.33 157.86c-2.01.54-2.82 2.2-1.62 3.32.49.46.92.56 3.15.72 9.42.69 13.15 1.38 19.15 3.53 2.25.81 3.02.8 2.35-.03-.75-.93-4.16-3.2-6.5-4.34-5.95-2.9-12.75-4.21-16.53-3.2h0z" class="O"/><path d="M49.13 190.5c-2.01.54-2.82 2.2-1.62 3.32.49.46.92.56 3.15.72 9.42.69 13.15 1.38 19.15 3.53 2.25.81 3.02.8 2.35-.03-.75-.93-4.16-3.2-6.5-4.34-5.95-2.89-12.74-4.21-16.53-3.2h0z" class="N"/><path d="M208.92 129.15c-2.01.54-2.82 2.2-1.62 3.32.49.46.92.56 3.15.72 9.42.69 13.15 1.38 19.15 3.53 2.25.81 3.02.8 2.35-.03-.75-.93-4.16-3.2-6.5-4.34-5.95-2.9-12.75-4.22-16.53-3.2h0zm237.37 63.19c-.49.25-.98.77-1.24 1.29-1.38 2.82 2.2 5.33 4.43 3.1 2.23-2.22-.39-5.83-3.19-4.39h0z" class="O"/><path d="M388.45 210.38c-.94.32-1.84 1.55-1.84 2.52 0 1.18.64 2.17 1.75 2.71.9.44 1.14.47 1.9.24 2.56-.76 2.79-4.12.37-5.3-1.11-.54-1.11-.54-2.18-.17h0z" class="N"/><path d="M428.61 211.14c-6.63 1.78-15.72 7.43-24.51 15.23-2.05 1.82-2.54 2.61-1.79 2.9.18.07 2.32-.77 4.77-1.87l17.4-7.59 7.8-3.38c2.54-1.34 2.78-4.12.46-5.32-.82-.42-2.49-.41-4.13.03h0z" class="P"/><path d="M424.8 240.16c-.97.29-2.3 1.81-2.49 2.84-.35 1.88 1.09 4.02 2.92 4.37 2.28.42 4.51-1.48 4.52-3.86 0-.81-.93-2.39-1.68-2.86-.9-.57-2.3-.78-3.27-.49h0z" class="O"/><path d="M442.25 244.77c-.29.47.48.84 4.5 2.17 5.2 1.71 8.59 3.19 14.71 6.42 3.56 1.88 5.21 2.63 5.77 2.63 1.66 0 2.62-1.63 1.93-3.28-1.21-2.88-10.39-6.79-18.41-7.84-3.12-.42-8.26-.47-8.5-.1h0z" class="N"/><path d="M449.6 299.95c-.62.62-.7 1.18-.31 2.03.26.56 1.08 1.07 1.73 1.07.57 0 1.71-1.29 1.71-1.95 0-.82-.96-1.73-1.84-1.73-.46.01-.93.22-1.29.58h0z" class="P"/><path d="M266.48 318.95c-2.62 1.42-5.26 4.92-6.27 8.33-.64 2.15-.55 5.29.21 7.45 1.12 3.19 3.01 5.26 6.18 6.79 4.22 2.03 8.74 1.33 12.11-1.89 2.4-2.29 3.75-5.95 3.21-8.73-.72-3.76-3.31-6.19-6.86-6.44-1.99-.14-3.54.34-4.9 1.54-2.78 2.43-3.05 7.15-.5 8.8 1.33.86 1.83.94 2.38.39.61-.61.59-.92-.14-1.99-1-1.46-1.09-1.98-.58-3.15.54-1.24 1.4-1.75 2.95-1.74 4.15.01 5.38 5.2 2.04 8.63-.92.95-1.45 1.28-2.53 1.59-5.24 1.51-10.2-3.28-9.7-9.35.33-3.96 1.79-6.65 4.8-8.87.72-.53 1.31-1.06 1.31-1.18 0-.38-1.01-.91-1.71-.9-.36-.01-1.26.31-2 .72h0z" class="N"/><path d="M180.41 124.17c-2.62 1.42-5.26 4.92-6.27 8.33-.64 2.15-.55 5.29.21 7.46 1.12 3.19 3.01 5.26 6.18 6.79 4.22 2.03 8.74 1.33 12.11-1.89 2.4-2.29 3.75-5.95 3.21-8.73-.72-3.76-3.31-6.19-6.86-6.44-1.99-.14-3.54.34-4.9 1.54-2.78 2.43-3.05 7.15-.5 8.8 1.33.86 1.83.94 2.38.39.61-.61.59-.92-.14-1.99-1-1.46-1.09-1.98-.58-3.15.54-1.24 1.4-1.75 2.95-1.74 4.15.01 5.38 5.2 2.04 8.63-.92.95-1.45 1.28-2.53 1.59-5.24 1.51-10.2-3.28-9.7-9.35.33-3.96 1.79-6.65 4.8-8.87.72-.53 1.31-1.06 1.31-1.18 0-.38-1.01-.91-1.71-.9-.36-.01-1.26.31-2 .71h0zm265.85 190.46c-3.5.91-9.62 4.66-13.12 8.02-4.02 3.87-5.34 5.63-4.48 5.97.16.06 1.99-.68 4.07-1.65 2.09-.97 6.65-2.93 10.17-4.36s6.7-2.78 7.08-3.01c1.09-.63 1.66-1.53 1.62-2.57-.1-2.34-2.1-3.24-5.34-2.4h0z" class="O"/><path d="M339.39 323.42c-.69.13-1.6 1.08-1.74 1.83-.37 1.95 1.66 3.44 3.4 2.5 1.79-.96 1.64-3.37-.26-4.17l-.83-.29-.57.13h0zm38.98 8.82c-2.36 1.2-2.96 4.16-1.24 6.19 1.6 1.9 4.84 1.75 6.29-.28.71-1 .86-3.04.31-4.2-.9-1.86-3.46-2.68-5.36-1.71h0zm-13.62 3.02c-1.59 2.12-4.25 7.28-5.53 10.73-3.81 10.23-5.04 20.33-3.25 26.56.85 2.97 3.88 4.4 5.92 2.79 1.2-.94 1.27-1.59 1.39-12.04.13-11.41.58-16.12 2.41-25.01.36-1.75.6-3.33.54-3.5-.2-.52-.91-.3-1.48.47h0z" class="N"/><path d="M315.67 336.57c-8.64 1.16-15.88 8.72-18.03 18.82-.61 2.83-.56 7.85.1 10.95 1.64 7.74 4.93 12.41 10.7 15.21 2.8 1.36 4.31 1.71 6.73 1.57 2.3-.14 3.84-.85 4.5-2.07.61-1.13.26-1.57-1.22-1.57-1.37 0-3.48-.54-5.07-1.3-1.77-.84-5.3-4.45-6.7-6.85-.59-1.01-1.43-2.84-1.84-4.02-.73-2.1-.75-2.27-.75-5.84 0-4.35.3-5.8 1.89-9.05 1.86-3.8 5.02-6.51 8.71-7.47 2.73-.71 6.34-.32 9.03.97 1.88.91 4.38 3.51 5.02 5.23 1.08 2.88.84 5.79-.77 9.18-2.43 5.14-8.11 7.43-11.49 4.64-1.45-1.2-1.88-3.09-1.13-4.99.55-1.38 1.45-1.92 2.9-1.73.63.09 1.46.31 1.81.49.94.48 1.52.4 1.95-.27.36-.54.36-.66.01-1.38-.75-1.58-4.32-2.64-6.47-1.93-1.22.4-2.73 1.87-3.36 3.27-.45.98-.55 1.58-.55 3.27 0 1.79.08 2.24.63 3.36 1.1 2.24 3.19 3.87 6.01 4.69 1.8.52 5.2.38 7.06-.29 3.94-1.43 7.67-4.95 9.59-9.04 1.25-2.65 1.69-4.94 1.57-8.11-.12-3.1-.66-5.06-2.06-7.41-1.72-2.88-5.05-5.7-8.22-6.95-3.05-1.2-7.53-1.78-10.55-1.38h0zm-189.7-134.79c-2.81-8.23-11.04-13.91-20.5-14.13-2.65-.06-7.12.92-9.76 2.15-6.57 3.06-10.07 7.15-11.39 13.32-.64 2.99-.64 4.54-.02 6.88.59 2.22 1.54 3.6 2.77 4.02 1.13.39 1.46-.04 1.15-1.49-.28-1.34-.23-3.5.12-5.21.39-1.89 2.88-6.01 4.74-7.84a23.82 23.82 0 0 1 3.21-2.55c1.72-1.11 1.88-1.16 5.06-1.83 3.88-.81 5.24-.79 8.47.16 3.78 1.11 6.85 3.69 8.46 7.13 1.2 2.54 1.59 6.14.98 9.02-.42 2.01-2.23 4.94-3.64 5.9-2.35 1.59-5 1.9-8.36.97-5.09-1.41-8.3-6.55-6.5-10.38.77-1.65 2.37-2.42 4.23-2.04 1.35.28 2.02 1.06 2.14 2.51.05.64.03 1.48-.06 1.87-.23 1.01-.04 1.56.64 1.86.56.25.66.23 1.23-.25 1.25-1.03 1.47-4.73.4-6.69-.61-1.12-2.23-2.32-3.61-2.68-.97-.25-1.53-.24-3.03.08-1.6.34-1.98.5-2.87 1.25-1.77 1.49-2.8 3.85-2.96 6.76-.1 1.86.72 5.16 1.71 6.86 2.09 3.59 5.99 6.58 10.04 7.69 2.62.72 4.76.73 7.56.02 2.75-.7 4.38-1.6 6.19-3.4 2.22-2.22 4.05-6.01 4.51-9.35.47-3.23.07-7.72-.91-10.61h0z" fill="#0dccff"/><path d="M173.33 324.65c-4.77 1.25-8.62 4.43-10.8 8.9-2.22 4.55-2.2 10.78.05 15.04 2.66 5.05 8.59 7.34 13.18 5.09 1.67-.82 3.79-3.14 4.45-4.87 1.15-3.02.5-5.93-1.9-8.48-1.74-1.86-3.3-2.39-4.5-1.55-1.14.81-1.08 2.29.18 3.87.96 1.2 1.25 2.2.96 3.28-.36 1.36-1.2 2.01-2.51 1.98-1.4-.04-2.28-.49-3.33-1.72-1.4-1.63-1.86-3.13-1.87-6.06-.01-2.25.06-2.65.61-3.83 1.73-3.67 5.85-6.15 9.77-5.86 2.45.18 3.88.93 6.14 3.21 2.12 2.14 3.47 4.26 4.39 6.93.59 1.69.64 2.12.65 5.4.01 3.76-.18 4.89-1.38 8.07-1.99 5.31-7.29 9.92-13.59 11.83-1.79.54-2.38.61-5.33.61-2.69 0-3.67-.1-5.16-.5-5.07-1.38-8.84-4.34-11.11-8.75-1.12-2.17-1.5-3.34-2.19-6.76-.62-3.06-.86-3.5-1.51-2.71-.56.68-.79 3.54-.48 5.73.78 5.42 4.03 10.45 8.68 13.47 8.55 5.53 19.99 4.71 28.46-2.05 4.65-3.71 8.57-10.68 9.48-16.84.39-2.65.17-7.42-.45-9.79-1.37-5.27-4.84-9.65-9.7-12.27-3.37-1.82-7.54-2.33-11.19-1.37h0zM114.16 98.6c-4.77 1.25-8.62 4.43-10.8 8.9-2.22 4.55-2.2 10.78.05 15.04 2.66 5.05 8.59 7.34 13.18 5.09 1.67-.82 3.79-3.14 4.45-4.87 1.15-3.02.5-5.93-1.9-8.48-1.74-1.86-3.3-2.39-4.5-1.55-1.14.81-1.08 2.29.18 3.87.96 1.2 1.25 2.2.96 3.28-.36 1.36-1.2 2.01-2.51 1.98-1.4-.04-2.28-.49-3.33-1.72-1.4-1.63-1.86-3.13-1.87-6.06-.01-2.25.06-2.65.61-3.83 1.73-3.67 5.85-6.15 9.77-5.86 2.45.18 3.88.93 6.14 3.21 2.12 2.14 3.47 4.26 4.39 6.93.58 1.69.64 2.12.65 5.4.01 3.76-.18 4.89-1.38 8.07-1.99 5.31-7.29 9.92-13.59 11.83-1.79.54-2.38.61-5.33.61-2.69 0-3.67-.1-5.16-.5-5.07-1.38-8.84-4.34-11.11-8.75-1.12-2.17-1.5-3.35-2.19-6.76-.62-3.06-.86-3.5-1.51-2.71-.56.68-.79 3.54-.48 5.73.78 5.42 4.03 10.45 8.68 13.47 8.55 5.53 19.99 4.71 28.46-2.05 4.65-3.71 8.57-10.68 9.48-16.84.39-2.65.17-7.42-.45-9.79-1.37-5.27-4.84-9.65-9.7-12.27-3.38-1.82-7.54-2.33-11.19-1.37h0z" class="Q"/><path d="M421.39 345.25c-.44.44.07 1.02 2.05 2.32 2.85 1.86 4.52 3.45 8.55 8.13 3.54 4.11 4.26 4.67 5.75 4.43s2.49-1.76 2.22-3.38c-.31-1.85-3.81-5.87-6.96-7.99-2.06-1.39-4.5-2.47-6.73-2.98-2.01-.47-4.66-.75-4.88-.53h0z" class="N"/><path d="M182.63 76.54c2.82 2.26 9.49 4.92 14.28 5.7 5.51.9 7.71.91 7.47.01-.04-.16-1.74-1.19-3.75-2.27-2.03-1.09-6.32-3.57-9.58-5.53s-6.24-3.7-6.65-3.87c-1.16-.5-2.22-.41-3.03.24-1.83 1.48-1.35 3.63 1.26 5.72h0z" class="P"/><path d="M222.04 78.13c.62.09.78-.66.63-3.03-.21-3.4.06-5.69 1.4-11.71 1.17-5.29 1.19-6.21.11-7.26s-2.9-.94-4.04.25c-1.29 1.35-2.42 6.57-2.23 10.36.12 2.48.72 5.09 1.64 7.18.83 1.88 2.18 4.16 2.49 4.21h0zm-8.6 296.18c-.44.44.07 1.02 2.06 2.32 2.85 1.86 4.52 3.45 8.55 8.13 3.54 4.11 4.26 4.67 5.75 4.43s2.49-1.76 2.22-3.38c-.31-1.85-3.81-5.87-6.96-7.99-2.06-1.39-4.5-2.47-6.73-2.98-2.02-.46-4.67-.75-4.89-.53h0z" class="N"/><path d="M388.01 347.61c-3 .59-6.33 3.19-7.72 6.04-2.13 4.35-1.33 9.29 2.05 12.68 2.47 2.48 5.96 3.74 9 3.26 2.78-.44 4.86-2.41 3.63-3.43-.29-.24-.61-.16-1.97.5-2.1 1.02-3.78 1.06-5.73.14-1.55-.73-3.36-2.57-4.24-4.3-1.54-3.04-.67-7.07 2.05-9.59 1.3-1.2 2.14-1.62 4.04-2.01 1.77-.36 3.29-.18 4.77.57 3.41 1.74 3.49 6.35.15 8.65-1.06.73-1.4.84-2.51.83-1.51-.02-2.01-.37-2.68-1.84-.59-1.31-.41-2.04.62-2.48.96-.41 1.38-.24 2.26.92 1.18 1.55 1.97.79 1.29-1.25-.6-1.77-1.5-2.54-3-2.54-1.31 0-2.12.35-3 1.31-.87.95-1.11 1.51-1.11 2.65 0 1.27.95 3.23 1.92 3.96.4.3 1.29.71 1.99.91 1.51.43 3.48.2 4.7-.55.92-.57 2.23-2 2.73-2.96.59-1.14 1.1-3.73.95-4.83-.45-3.38-3.27-6.05-7.03-6.65-1.65-.27-1.77-.27-3.16.01h0z" class="Q"/><use xlink:href="#C" class="N"/><g class="P"><use xlink:href="#C" x="30.56" y="-120.04"/><path d="M264.82 359.4c-7.15 1.16-14.5 4.92-19.74 10.1-2.4 2.38-3 3.52-2.8 5.32.23 2.02 2.08 2.93 4.13 2.05.41-.18 1.66-1.07 2.8-2 3.72-3.03 11.42-8.9 14.19-10.82 4.66-3.22 5.55-3.93 5.55-4.43 0-.39-.16-.46-1.15-.49-.63-.01-1.98.11-2.98.27h0z"/></g><path d="M281.56 368.03c-5.06 4.32-10.34 12.09-12.41 18.26-1.25 3.72-1.13 5.41.41 6.2 1.01.51 2.31.12 2.92-.89.25-.41 1.45-3.28 2.67-6.36 2.55-6.45 4.42-10.49 6.77-14.58 1.55-2.71 1.82-3.53 1.24-3.71-.13-.05-.85.44-1.6 1.08h0z" class="N"/><path d="M408.87 374.21c-.99.99-.24 2.51 1.25 2.51.55 0 .9-.15 1.14-.5.79-1.12.17-2.47-1.14-2.47-.49.01-.97.18-1.25.46h0zM343 380.43c-.87.35-1.36.9-1.51 1.7-.25 1.31.61 2.39 1.91 2.41 2.34.02 3.18-3.15 1.07-4.03l-.83-.31c-.05 0-.34.11-.64.23h0z" class="O"/><path d="M395.44 387.53c-.07.12.23 1.85.67 3.84l1.16 5.8c.74 4.44 1.77 9.32 2.17 10.21.59 1.33 1.4 1.99 2.63 2.12a2.87 2.87 0 0 0 2.99-1.64c1.32-2.79-.74-9.79-4.58-15.5-2.54-3.78-4.52-5.68-5.04-4.83h0z" class="R"/><path d="M209.45 338.18c-.07.12.23 1.85.66 3.84l1.16 5.8c.74 4.44 1.77 9.32 2.17 10.21.59 1.33 1.4 1.99 2.63 2.12a2.87 2.87 0 0 0 2.99-1.64c1.32-2.79-.74-9.79-4.58-15.5-2.54-3.78-4.52-5.68-5.03-4.83h0z" class="P"/><path d="M358.61 391.89c-6.73 1.8-11.42 7.33-11.87 14-.27 4.07 1.74 8.54 4.65 10.34.92.57 2.12.51 2.49-.11.21-.35.14-.5-.43-.91-3.02-2.2-4.48-4.93-4.48-8.36 0-6.86 8.1-13 14.78-11.2 1.88.51 2.79.98 3.94 2.03 2.49 2.29 2.7 5.5.54 8.23-.87 1.1-2.73 2.2-4.04 2.4-2.06.31-4.37-1.09-4.87-2.95-.24-.9-.05-2 .45-2.6.43-.52 1.56-.4 2.32.24 1.13.95 2.49.7 2.49-.46 0-1.22-2.12-2.7-3.83-2.68-2.37.03-3.98 2-3.98 4.87 0 4.02 2.95 6.77 7.59 7.07 4 .26 7.42-1.84 9.26-5.69.66-1.38.71-1.66.71-3.89s-.05-2.52-.73-3.96c-.83-1.75-2.55-3.71-4.18-4.75-2.9-1.85-7.43-2.53-10.81-1.62h0z" class="O"/><path d="M276.63 70.45c-2.48-8.2-9.45-13.75-17.66-14.04-5.01-.18-10.43 2.47-12.53 6.12-.66 1.15-.55 2.62.23 3.05.44.24.61.15 1.1-.56 2.59-3.79 5.88-5.7 10.1-5.83 8.43-.26 16.29 9.45 14.33 17.73-.55 2.33-1.09 3.47-2.34 4.91-2.71 3.15-6.65 3.53-10.09.98-1.38-1.03-2.81-3.26-3.11-4.87-.46-2.51 1.17-5.41 3.43-6.1 1.09-.33 2.45-.14 3.21.45.65.51.55 1.9-.21 2.86-1.12 1.42-.76 3.09.66 3.04 1.5-.05 3.24-2.71 3.14-4.8-.13-2.91-2.61-4.81-6.13-4.7-4.94.15-8.2 3.89-8.39 9.59-.16 4.93 2.55 9.04 7.35 11.16 1.72.76 2.07.81 4.81.72s3.09-.16 4.83-1.05c2.12-1.08 4.46-3.28 5.68-5.32 2.17-3.62 2.83-9.22 1.59-13.34h0z" class="R"/><path d="M241.06 101.49c-6.73 1.8-11.42 7.33-11.87 14-.27 4.07 1.74 8.54 4.65 10.34.92.57 2.12.51 2.49-.11.21-.35.14-.49-.43-.91-3.02-2.2-4.48-4.93-4.48-8.36 0-6.86 8.1-13 14.78-11.2 1.88.51 2.79.98 3.94 2.03 2.49 2.29 2.7 5.5.54 8.23-.87 1.1-2.73 2.2-4.04 2.4-2.06.31-4.37-1.09-4.87-2.95-.24-.9-.05-2 .45-2.6.43-.52 1.56-.4 2.32.24 1.13.95 2.49.7 2.49-.46 0-1.22-2.12-2.7-3.83-2.68-2.37.03-3.98 2-3.98 4.87 0 4.02 2.95 6.77 7.59 7.07 4 .26 7.42-1.84 9.26-5.69.66-1.38.71-1.66.71-3.89s-.05-2.52-.73-3.96c-.83-1.75-2.55-3.71-4.18-4.75-2.9-1.85-7.43-2.52-10.81-1.62h0zM140.27 324.96c.69.13 1.6 1.08 1.74 1.83.37 1.95-1.66 3.44-3.4 2.5-1.79-.96-1.64-3.37.26-4.17l.83-.29c.03.02.28.08.57.13h0zm-25.36 11.84c1.59 2.12 4.25 7.28 5.53 10.73 3.81 10.23 5.04 20.33 3.25 26.56-.85 2.97-3.88 4.4-5.92 2.79-1.2-.94-1.27-1.59-1.39-12.04-.13-11.41-.58-16.12-2.41-25.01-.36-1.75-.6-3.33-.54-3.5.2-.51.91-.29 1.48.47h0z" class="N"/><path d="M231.79 406.95c5.68.76 10.45 5.74 11.87 12.38.4 1.86.37 5.16-.07 7.21-1.08 5.09-3.24 8.17-7.04 10.01-1.84.89-2.83 1.12-4.43 1.03-1.51-.09-2.53-.56-2.96-1.36-.4-.74-.17-1.04.81-1.04.9 0 2.29-.36 3.34-.86 1.17-.56 3.48-2.93 4.41-4.51.39-.67.94-1.87 1.21-2.65.48-1.38.5-1.5.5-3.84 0-2.86-.2-3.82-1.24-5.96-1.22-2.5-3.3-4.29-5.73-4.92-1.8-.47-4.17-.21-5.94.64-1.24.6-2.88 2.31-3.31 3.44-.71 1.9-.55 3.81.5 6.04 1.6 3.38 5.34 4.89 7.56 3.05.96-.79 1.24-2.03.74-3.28-.36-.91-.96-1.27-1.91-1.14-.42.06-.96.2-1.19.32-.62.31-1 .26-1.28-.18-.23-.36-.23-.43-.01-.91.49-1.04 2.85-1.74 4.26-1.27.8.27 1.79 1.23 2.21 2.15.29.64.36 1.04.36 2.15 0 1.18-.06 1.47-.42 2.21-.72 1.47-2.1 2.55-3.96 3.09-1.19.35-3.42.25-4.65-.19-2.59-.94-5.05-3.26-6.31-5.95-.82-1.75-1.11-3.25-1.03-5.34.08-2.04.44-3.33 1.36-4.88 1.13-1.9 3.32-3.75 5.41-4.57 2.01-.75 4.95-1.14 6.94-.87h0z" class="R"/><path d="M97.85 353.04c3 .59 6.33 3.19 7.72 6.04 2.13 4.35 1.33 9.29-2.05 12.68-2.47 2.48-5.96 3.74-9 3.26-2.78-.44-4.86-2.41-3.63-3.43.29-.24.61-.16 1.97.5 2.1 1.02 3.78 1.06 5.73.14 1.55-.73 3.36-2.57 4.24-4.3 1.54-3.04.67-7.07-2.05-9.59-1.3-1.2-2.14-1.62-4.04-2.01-1.77-.36-3.29-.18-4.77.57-3.41 1.74-3.49 6.35-.15 8.65 1.06.73 1.4.84 2.51.83 1.51-.02 2.01-.37 2.68-1.84.59-1.31.41-2.04-.62-2.48-.96-.41-1.38-.24-2.26.92-1.18 1.55-1.97.79-1.29-1.25.6-1.77 1.5-2.54 3-2.54 1.31 0 2.12.35 3 1.31.87.95 1.11 1.51 1.11 2.65 0 1.27-.95 3.23-1.92 3.96-.4.3-1.29.71-1.99.91-1.51.43-3.48.2-4.7-.55-.92-.57-2.24-2-2.73-2.96-.59-1.14-1.1-3.73-.95-4.83.45-3.38 3.27-6.05 7.03-6.65 1.65-.26 1.77-.26 3.16.01h0zm-27.9-17.57c-6.51 3.18-14.68 4.35-21.95 3.14-3.34-.55-4.48-1.14-5.36-2.73-.98-1.78 0-3.6 2.19-4.06.44-.09 1.97-.09 3.44.02 4.78.33 14.47.68 17.83.65 5.66-.06 6.8.01 7.09.41.23.32.13.47-.65 1.06-.51.38-1.68 1.06-2.59 1.51h0z" class="P"/><path d="M185.95 401.06c5.06 4.32 10.34 12.09 12.41 18.26 1.25 3.72 1.13 5.41-.41 6.2-1.01.51-2.31.12-2.92-.89-.25-.41-1.45-3.28-2.67-6.36-2.55-6.45-4.42-10.49-6.77-14.58-1.55-2.71-1.82-3.53-1.24-3.71.14-.05.86.44 1.6 1.08h0z" fill="#0dccff"/><path d="M136.66 381.98c.87.35 1.36.9 1.51 1.7.25 1.31-.61 2.39-1.91 2.41-2.34.02-3.18-3.15-1.07-4.03l.83-.31c.04 0 .33.11.64.23h0zm-47.82 8.13c.07.12-.23 1.85-.67 3.84l-1.16 5.8c-.74 4.44-1.77 9.32-2.17 10.21-.59 1.33-1.4 1.99-2.63 2.12a2.87 2.87 0 0 1-2.99-1.64c-1.32-2.79.74-9.79 4.58-15.5 2.54-3.78 4.52-5.68 5.04-4.83h0z" class="Q"/><path d="M131.94 403.28c6.73 1.8 11.42 7.33 11.87 14 .27 4.07-1.74 8.54-4.65 10.34-.92.57-2.12.51-2.49-.11-.21-.35-.14-.5.43-.91 3.02-2.2 4.48-4.93 4.48-8.36 0-6.86-8.1-13-14.78-11.2-1.88.51-2.79.98-3.94 2.03-2.49 2.29-2.7 5.5-.54 8.23.87 1.1 2.73 2.2 4.04 2.4 2.06.31 4.37-1.09 4.87-2.95.24-.9.05-2-.45-2.6-.43-.52-1.56-.4-2.32.24-1.13.95-2.49.7-2.49-.46 0-1.22 2.12-2.7 3.83-2.68 2.37.03 3.98 2 3.98 4.87 0 4.02-2.95 6.77-7.59 7.07-4 .26-7.42-1.84-9.26-5.69-.66-1.38-.71-1.66-.71-3.89s.05-2.52.73-3.96c.83-1.75 2.55-3.71 4.18-4.75 2.89-1.85 7.42-2.53 10.81-1.62h0zm73.02-20.79c-6.23 0-6.24 9.68 0 9.68 6.22 0 6.23-9.68 0-9.68z" class="O"/><use xlink:href="#D" class="Q"/><use xlink:href="#D" x="15.82" y="-71.02" class="N"/><use xlink:href="#D" x="56.3" y="-151.61" class="P"/><use xlink:href="#D" x="-64.77" y="-26.49" class="N"/><use xlink:href="#E" class="Q"/><path d="M231.69 338.18c-2.49 0-2.5 3.87 0 3.87 2.49 0 2.5-3.87 0-3.87z" class="N"/><g class="P"><path d="M289.83 355.47c-2.49 0-2.5 3.87 0 3.87 2.5.01 2.5-3.87 0-3.87z"/><use xlink:href="#E" x="57.04" y="-20.98"/></g><use xlink:href="#F" class="N"/><g class="Q"><use xlink:href="#F" x="-82.8" y="-62.93"/><use xlink:href="#G"/></g><g class="O"><use xlink:href="#H"/><use xlink:href="#H" x="33.49" y="-62.56"/><use xlink:href="#G" x="105.25" y="-171.86"/></g><g class="N"><use xlink:href="#G" x="145.36" y="-201.67"/><use xlink:href="#G" x="188.05" y="-159.35"/><use xlink:href="#H" x="204.61" y="-128.8"/></g><use xlink:href="#D" x="163.39" y="-101.93" class="Q"/><g class="P"><use xlink:href="#I"/><use xlink:href="#I" x="90.32" y="94.57"/></g><use xlink:href="#I" x="-58.14" y="138" class="Q"/><g class="O"><path d="M241.63 317.36c-5.61 0-5.62 8.71 0 8.71 5.6 0 5.61-8.71 0-8.71z"/><use xlink:href="#I" x="-294.03" y="174.43"/><path d="M63.88 242.52c-4.36 0-4.37 6.78 0 6.78 4.36-.01 4.37-6.78 0-6.78z"/></g><use xlink:href="#H" x="57.41" y="-2.21" class="N"/><use xlink:href="#H" x="141.67" y="-128.8" class="O"/><use xlink:href="#H" x="274.16" y="-93.84" class="N"/><use xlink:href="#G" x="310.96" y="-101.94" class="O"/><use xlink:href="#G" x="290.35" y="29.81" class="P"/><use xlink:href="#H" x="176.64" y="167.07" class="O"/><path d="M165.82 401.01c-4.98 0-4.99 7.74 0 7.74 4.98 0 4.99-7.74 0-7.74z" class="N"/><g class="P"><path d="M145.58 140.83c-4.98 0-4.99 7.74 0 7.74 4.98.01 4.99-7.74 0-7.74z"/><use xlink:href="#G" x="73.6" y="-156.77"/></g><use xlink:href="#E" x="-69.92" y="-228.16" class="Q"/><path d="M336.2 88.67c-2.49 0-2.5 3.87 0 3.87 2.49.01 2.5-3.87 0-3.87z" class="O"/><g class="N"><use xlink:href="#G" x="303.6" y="-219.7"/><use xlink:href="#H" x="334.88" y="-40.48"/></g><defs ><path id="B" d="M154.07 394.51c1.99.97 6.55-1.29 12.29-6.1 3.09-2.59 5.06-4.74 4.77-5.21-.28-.46-.82-.25-7.64 2.96-9.52 4.47-10.51 5.09-10.5 6.5 0 .62.58 1.6 1.08 1.85h0z"/><path id="C" d="M47.51 258.65c-3 .59-6.33 3.19-7.72 6.04-2.13 4.35-1.33 9.29 2.05 12.68 2.47 2.48 5.96 3.74 9 3.26 2.78-.44 4.86-2.41 3.63-3.43-.29-.24-.61-.16-1.97.5-2.1 1.02-3.78 1.06-5.73.14-1.55-.73-3.36-2.57-4.24-4.3-1.54-3.04-.67-7.07 2.05-9.59 1.3-1.2 2.14-1.62 4.04-2.01 1.77-.36 3.29-.18 4.77.57 3.41 1.74 3.49 6.35.15 8.65-1.06.73-1.4.84-2.51.83-1.51-.02-2.01-.37-2.68-1.84-.59-1.31-.41-2.04.62-2.48.96-.41 1.38-.24 2.26.92 1.18 1.55 1.97.79 1.29-1.25-.6-1.77-1.5-2.54-3-2.54-1.31 0-2.12.35-3 1.31-.87.95-1.11 1.51-1.11 2.65 0 1.27.95 3.23 1.92 3.96.4.3 1.29.71 1.99.91 1.51.43 3.48.2 4.7-.55.92-.57 2.23-2 2.73-2.96.59-1.14 1.1-3.73.95-4.83-.45-3.38-3.27-6.05-7.03-6.65-1.65-.26-1.77-.26-3.16.01h0z"/><path id="D" d="M127.18 241.8c-6.23 0-6.24 9.68 0 9.68 6.23 0 6.24-9.68 0-9.68z"/><path id="E" d="M183.11 380.5c-2.49 0-2.5 3.87 0 3.87s2.5-3.87 0-3.87z"/><path id="F" d="M165.82 402.58c-2.49 0-2.5 3.87 0 3.87 2.49 0 2.49-3.87 0-3.87z"/><path id="G" d="M57.26 311.2c-3.11 0-3.12 4.84 0 4.84 3.11 0 3.12-4.84 0-4.84z"/><path id="H" d="M76.39 226.93c-3.11 0-3.12 4.84 0 4.84s3.12-4.84 0-4.84z"/><path id="I" d="M357.91 179.73c-5.61 0-5.62 8.71 0 8.71 5.61 0 5.62-8.71 0-8.71z"/></defs></svg>